<svg xmlns="http://www.w3.org/2000/svg" xmlns:xlink="http://www.w3.org/1999/xlink" id="Layer_1" x="0" y="0" version="1.1" viewBox="0 0 786.1 193.2" style="enable-background:new 0 0 786.1 193.2" xml:space="preserve"><style type="text/css">.st0{fill:#42239b}.st1{fill:#fffcff}.st2{fill:#6c52dd}.st3{fill:#fff}</style><g><g><path d="M172.1,136.2V57c0-6.2-3.3-12-8.7-15.1L94.8,2.3c-5.4-3.1-12.1-3.1-17.5,0L8.7,41.9C3.3,45,0,50.8,0,57v79.2 c0,6.2,3.3,12,8.7,15.1l68.6,39.6c5.4,3.1,12.1,3.1,17.5,0l68.6-39.6C168.8,148.2,172.1,142.4,172.1,136.2z" class="st0"/><ellipse cx="65.2" cy="72.6" class="st1" rx="5.4" ry="5.4"/><circle cx="145.5" cy="135.1" r="3.5" class="st2"/><circle cx="86" cy="159.2" r="3.5" class="st2"/><g><circle cx="107.6" cy="37.5" r="3.5" class="st2"/><circle cx="63.6" cy="37.5" r="3.5" class="st2"/></g><circle cx="145.5" cy="105.5" r="5.4" class="st2"/><circle cx="114.5" cy="141.8" r="5.4" class="st1"/><circle cx="50.8" cy="143.6" r="5.4" class="st1"/><circle cx="50.8" cy="91.4" r="6.6" class="st1"/><circle cx="86" cy="125.8" r="6.6" class="st2"/><circle cx="86" cy="59.7" r="6.6" class="st2"/><ellipse cx="114.4" cy="107.3" class="st1" rx="6.6" ry="6.6"/><ellipse cx="36" cy="51.3" class="st1" rx="6.6" ry="6.6"/><rect width="2.3" height="80.4" x="113.2" y="64.8" class="st1"/><rect width="2.3" height="57.8" x="49.6" y="89.8" class="st1"/><polygon points="36.9 50.7 36.4 50.3 35 52.2 114.1 108.4 114.6 108.8 116 106.9" class="st1"/><polygon points="65.7 70.4 45.9 93.7 47.7 95.3 67.1 72.4 67.5 72" class="st1"/><circle cx="114.5" cy="69.5" r="5.4" class="st1"/><circle cx="128.5" cy="56" r="5.4" class="st1"/><circle cx="144.7" cy="75.5" r="6.6" class="st1"/><rect width="16.7" height="2.3" x="111.7" y="62.9" class="st1" transform="matrix(0.7073 -0.707 0.707 0.7073 -10.175 103.617)"/><polygon points="113.7 67.6 113.3 70 143.8 74.7 144.1 72.4" class="st1"/><polygon points="127.6 53.6 125.7 55 141 74.7 142.8 73.3" class="st1"/><circle cx="25.7" cy="80.6" r="3.5" class="st2"/><circle cx="25.7" cy="110.2" r="5.4" class="st2"/></g><path d="M309.5,144.8l-50.8-66.9l-0.1,66.9h-20V44.7h18.7l50.9,66.9V44.7h20v100.1L309.5,144.8L309.5,144.8z" class="st3"/><path d="M395.1,144.8v-7.7c-4.6,5.7-11.2,9.4-20.7,9.4c-19.2,0-33.5-15.7-33.5-36.5s14.4-36.5,33.5-36.5 c9.5,0,16.2,3.8,20.7,9.5v-7.7h18.2v69.3h-18.2V144.8z M359.9,110.1c0,10.6,6.9,19.1,17.9,19.1c10.7,0,17.9-8.2,17.9-19.1 c0-10.9-7.2-19.1-17.9-19.1C366.9,91,359.9,99.5,359.9,110.1z" class="st3"/><path d="M455.2,100.1l19.5-24.7h22.9L470.3,108l27.5,36.7h-23l-20-28h-6.3v28h-18.7v-103h18.7v58.4H455.2z" class="st3"/><path d="M554.8,144.8v-7.7c-4.6,5.7-11.2,9.4-20.7,9.4c-19.2,0-33.5-15.7-33.5-36.5s14.4-36.5,33.5-36.5 c9.5,0,16.2,3.8,20.7,9.5v-7.7H573v69.3h-18.2V144.8z M519.6,110.1c0,10.6,6.9,19.1,17.9,19.1c10.7,0,17.9-8.2,17.9-19.1 c0-10.9-7.2-19.1-17.9-19.1C526.5,91,519.6,99.5,519.6,110.1z" class="st3"/><path d="M702.9,100.6v44.1h-18.6v-38.1c0-10.1-5-15.5-13.5-15.5c-8,0-14.7,5.2-14.7,15.7v38h-18.7v-38.1 c0-10.1-4.9-15.5-13.5-15.5c-8,0-14.7,5.2-14.7,15.7v38h-18.7V75.6h18.2v8.2c4.9-7.4,12.4-10,20.4-10c10.1,0,18.2,4.4,22.9,11.9 c5.4-8.9,14.5-11.9,23.5-11.9C691.9,73.6,702.9,84.5,702.9,100.6z" class="st3"/><path d="M767.9,144.8v-7.7c-4.6,5.7-11.2,9.4-20.7,9.4c-19.2,0-33.5-15.7-33.5-36.5s14.4-36.5,33.5-36.5 c9.5,0,16.2,3.8,20.7,9.5v-7.7h18.2v69.3h-18.2V144.8z M732.7,110.1c0,10.6,6.9,19.1,17.9,19.1c10.7,0,17.9-8.2,17.9-19.1 c0-10.9-7.2-19.1-17.9-19.1C739.6,91,732.7,99.5,732.7,110.1z" class="st3"/></g></svg>