<svg xmlns="http://www.w3.org/2000/svg" xmlns:xlink="http://www.w3.org/1999/xlink" id="Layer_1" width="16" height="15" x="0" y="0" version="1.1" viewBox="0 0 16 15" style="enable-background:new 0 0 16 15" xml:space="preserve"><style type="text/css">.st0{fill:#fe756a}.st1{fill:#fff}</style><metadata><sfw xmlns="http://ns.adobe.com/SaveForWeb/1.0/"><slices/><sliceSourceBounds width="15.9" height="13.9" x=".1" y=".6" bottomLeftOrigin="true"/></sfw></metadata><path d="M0.3,11.9L6.6,1.3c0.7-1.1,2.2-1.1,2.9,0l6.3,10.5c0.7,1.2-0.1,2.6-1.4,2.6H1.7C0.4,14.5-0.4,13,0.3,11.9z" class="st0"/><g><path d="M7,10.8c0-0.6,0.4-1,1-1s1,0.4,1,1s-0.4,1-1,1S7,11.4,7,10.8z" class="st1"/><polygon points="7.4 8.8 7.1 4.8 8.9 4.8 8.6 8.8" class="st1"/></g></svg>