<svg xmlns="http://www.w3.org/2000/svg" xmlns:xlink="http://www.w3.org/1999/xlink" id="Layer_1" width="30" height="30" x="0" y="0" version="1.1" viewBox="0 0 30 30" style="enable-background:new 0 0 30 30" xml:space="preserve"><style type="text/css">.st0{fill-rule:evenodd;clip-rule:evenodd;fill:#7668ed}.st1{fill:#fff}</style><metadata><sfw xmlns="http://ns.adobe.com/SaveForWeb/1.0/"><slices/><sliceSourceBounds width="30" height="30" x="0" y="-30" bottomLeftOrigin="true"/></sfw></metadata><g><circle cx="15" cy="15" r="15" class="st0"/><g><path d="M22.5,7.7l-0.2-0.2c-0.8-0.8-2.1-0.8-2.9,0l-1.1,1.1l-2-1.6l-0.9-0.8L14.7,7l-4.2,5.1l0.7,0.7l4.2-3.4l1,1.2 l-1.2,1.2l-5.7,5.7l3.1,3.1l5.7-5.7l1.4-1.4l2.9-2.9C23.3,9.8,23.3,8.5,22.5,7.7z" class="st1"/><polygon points="6.9 23.1 11.2 21.8 8.2 18.8" class="st1"/></g></g></svg>