<svg xmlns="http://www.w3.org/2000/svg" xmlns:xlink="http://www.w3.org/1999/xlink" id="Layer_1" x="0" y="0" version="1.1" viewBox="0 0 18.9 16.9" style="enable-background:new 0 0 18.9 16.9" xml:space="preserve"><style type="text/css">.st0{fill:none;stroke:#fff;stroke-linecap:round;stroke-miterlimit:10}</style><g><path id="Path_237-2" d="M13.4,13.6H5.5v-0.3c0-2.2,1.8-4,4-4l0,0l0,0c2.2,0,4,1.8,4,4l0,0L13.4,13.6z M9.4,3.3 C8,3.3,6.9,4.4,6.9,5.8l0,0c0,1.4,1.1,2.5,2.5,2.5l0,0c1.4,0,2.5-1.1,2.5-2.5l0,0C12,4.4,10.8,3.3,9.4,3.3L9.4,3.3z" class="st0"/></g></svg>