<svg xmlns="http://www.w3.org/2000/svg" xmlns:xlink="http://www.w3.org/1999/xlink" id="Layer_1" width="18" height="18" x="0" y="0" version="1.1" viewBox="0 0 18 18" style="enable-background:new 0 0 18 18" xml:space="preserve"><style type="text/css">.st0{fill:#dad5ff}.st1{enable-background:new}.st2{fill:#333564}</style><metadata><sfw xmlns="http://ns.adobe.com/SaveForWeb/1.0/"><slices/><sliceSourceBounds width="17" height="17" x="996.5" y="-574.5" bottomLeftOrigin="true"/></sfw></metadata><circle id="Ellipse_15" cx="9" cy="9" r="8.5" class="st0"/><g class="st1"><path d="M9.6,10.4H8.4V9.8c0-0.3,0-0.5,0.1-0.6C8.6,9,8.7,8.9,8.9,8.7l0.7-0.7c0.2-0.2,0.2-0.4,0.2-0.6 c0-0.2-0.1-0.5-0.2-0.6C9.5,6.5,9.3,6.4,9,6.4S8.6,6.5,8.4,6.7C8.2,6.8,8.1,7,8.1,7.3H6.9C7,6.7,7.2,6.2,7.6,5.9 C8,5.6,8.5,5.4,9.1,5.4s1.1,0.2,1.5,0.5c0.4,0.3,0.6,0.8,0.6,1.4c0,0.4-0.1,0.7-0.3,1c-0.1,0.2-0.2,0.3-0.3,0.3 c-0.1,0.1-0.2,0.2-0.3,0.3S10,9,9.9,9.1C9.9,9.2,9.8,9.3,9.7,9.3C9.6,9.5,9.6,9.7,9.6,9.9V10.4z M9,12.6c-0.2,0-0.4-0.1-0.5-0.2 c-0.2-0.1-0.2-0.3-0.2-0.5c0-0.2,0.1-0.4,0.2-0.5s0.3-0.2,0.5-0.2s0.4,0.1,0.5,0.2s0.2,0.3,0.2,0.5c0,0.2-0.1,0.4-0.2,0.5 C9.4,12.5,9.2,12.6,9,12.6z" class="st2"/></g></svg>